<svg width="32" height="32" viewBox="0 0 32 32" fill="none" xmlns="http://www.w3.org/2000/svg">
<path d="M16 32C24.8366 32 32 24.8366 32 16C32 7.16344 24.8366 0 16 0C7.16344 0 0 7.16344 0 16C0 24.8366 7.16344 32 16 32Z" fill="#3987F0"/>
<path d="M16 32C24.8366 32 32 24.8366 32 16C32 7.16344 24.8366 0 16 0C7.16344 0 0 7.16344 0 16C0 24.8366 7.16344 32 16 32Z" fill="#3987F0"/>
<path d="M10.7914 17.576L16.3497 7.8802C16.4595 7.68865 16.7529 7.78011 16.7344 8.00013L16.2423 13.8523H21.0322C21.1903 13.8523 21.2897 14.0229 21.2117 14.1605L15.5675 24.1185C15.4587 24.3106 15.1649 24.2205 15.1823 24.0004L15.6662 17.885H10.9704C10.8118 17.885 10.7125 17.7136 10.7914 17.576Z" stroke="white" stroke-width="1.35"/>
<path d="M16 32C24.8366 32 32 24.8366 32 16C32 7.16344 24.8366 0 16 0C7.16344 0 0 7.16344 0 16C0 24.8366 7.16344 32 16 32Z" fill="#3987F0"/>
<path d="M11.5 9.25V18.25" stroke="white" stroke-width="2" stroke-linecap="round" stroke-linejoin="round"/>
<path d="M20.5 13.75C21.7426 13.75 22.75 12.7426 22.75 11.5C22.75 10.2574 21.7426 9.25 20.5 9.25C19.2574 9.25 18.25 10.2574 18.25 11.5C18.25 12.7426 19.2574 13.75 20.5 13.75Z" stroke="white" stroke-width="2" stroke-linecap="round" stroke-linejoin="round"/>
<path d="M11.5 22.75C12.7426 22.75 13.75 21.7426 13.75 20.5C13.75 19.2574 12.7426 18.25 11.5 18.25C10.2574 18.25 9.25 19.2574 9.25 20.5C9.25 21.7426 10.2574 22.75 11.5 22.75Z" stroke="white" stroke-width="2" stroke-linecap="round" stroke-linejoin="round"/>
<path d="M20.5 13.75C20.5 15.5402 19.7888 17.2571 18.523 18.523C17.2571 19.7888 15.5402 20.5 13.75 20.5" stroke="white" stroke-width="2" stroke-linecap="round" stroke-linejoin="round"/>
</svg>
